<?xml version="1.0" encoding="UTF-8"?>
<svg id="Layer_1" xmlns="http://www.w3.org/2000/svg" xmlns:xlink="http://www.w3.org/1999/xlink" version="1.1" viewBox="0 0 48 48">
  <!-- Generator: Adobe Illustrator 29.0.0, SVG Export Plug-In . SVG Version: 2.1.0 Build 186)  -->
  <defs>
    <style>
      .st0 {
        fill: #006cff;
      }
    </style>
    <linearGradient id="linear-gradient" x1="8" y1="24" x2="40" y2="24" gradientUnits="userSpaceOnUse">
      <stop offset="0" stop-color="#fe757d"/>
      <stop offset="1" stop-color="#417cf6"/>
    </linearGradient>
  </defs>
  <path class="st0" d="M18.5,26h3v-6h5v6h3v-9.3l-5.5-3.7-5.5,3.7v9.3ZM24,40c4.4-4,7.7-7.7,9.8-11s3.2-6.2,3.2-8.7c0-3.9-1.3-7.2-3.8-9.7s-5.6-3.8-9.2-3.8-6.7,1.3-9.2,3.8c-2.5,2.5-3.8,5.7-3.8,9.7s1.1,5.4,3.3,8.7c2.2,3.3,5.4,6.9,9.8,11ZM24,44c-5.4-4.6-9.4-8.8-12-12.7s-4-7.5-4-10.9c0-5,1.6-9,4.8-12,3.2-3,6.9-4.5,11.2-4.5s8,1.5,11.2,4.5,4.8,7,4.8,12-1.3,7-4,10.9-6.7,8.2-12,12.7Z"/>
</svg>
