<?xml version="1.0" encoding="UTF-8"?><svg id="Layer_1" xmlns="http://www.w3.org/2000/svg" viewBox="0 0 440.92 51"><defs><style>.cls-1{fill:#bfbfc6;}</style></defs><path class="cls-1" d="M389.76,38.82v-2.4h1.44v2.4h-1.44Z"/><path class="cls-1" d="M392.81,32.41c0-.9.16-1.74.47-2.54.31-.8.75-1.5,1.31-2.09.56-.59,1.24-1.06,2.02-1.41s1.65-.51,2.59-.51c1.21,0,2.26.27,3.16.82.9.55,1.57,1.28,2.03,2.22l-1.62.51c-.36-.65-.86-1.16-1.51-1.53-.64-.37-1.36-.55-2.14-.55-.65,0-1.26.13-1.82.39-.56.26-1.05.62-1.47,1.06-.42.45-.74.98-.98,1.6-.24.62-.35,1.3-.35,2.03s.12,1.4.37,2.03c.24.64.58,1.19,1,1.65.42.47.92.83,1.48,1.1s1.16.4,1.8.4c.41,0,.81-.06,1.21-.17.4-.11.77-.27,1.11-.48.34-.2.64-.44.88-.7s.42-.54.51-.83l1.64.49c-.18.46-.44.88-.78,1.26-.34.38-.75.72-1.21,1-.47.29-.98.51-1.54.66-.56.16-1.15.23-1.75.23-.93,0-1.79-.18-2.57-.53s-1.46-.83-2.03-1.44c-.57-.61-1.02-1.32-1.33-2.12-.32-.8-.48-1.66-.48-2.57Z"/><path class="cls-1" d="M412.63,39.06c-.93,0-1.78-.18-2.55-.53-.77-.35-1.43-.83-1.99-1.43-.56-.6-1-1.3-1.31-2.1-.31-.8-.47-1.64-.47-2.52s.16-1.75.48-2.54c.32-.8.76-1.5,1.32-2.11.56-.6,1.23-1.08,1.99-1.44.77-.36,1.61-.54,2.52-.54s1.76.18,2.53.54c.78.36,1.44.84,2.01,1.44.56.6,1,1.31,1.32,2.11.32.8.48,1.65.48,2.54s-.16,1.72-.47,2.52c-.31.8-.75,1.5-1.31,2.1-.56.6-1.23,1.08-2.01,1.43s-1.63.53-2.56.53ZM408.01,32.5c0,.72.12,1.38.37,1.99.24.61.57,1.15.99,1.62.42.47.91.83,1.47,1.09.56.26,1.16.39,1.8.39s1.24-.13,1.8-.4,1.06-.64,1.48-1.1.76-1.01,1-1.63.37-1.29.37-2.01-.12-1.37-.37-1.99c-.24-.63-.58-1.17-1-1.64s-.92-.83-1.48-1.1c-.56-.27-1.16-.4-1.8-.4s-1.23.13-1.79.4c-.55.27-1.04.64-1.47,1.11-.42.47-.76,1.02-1,1.65s-.37,1.3-.37,2.02Z"/><path class="cls-1" d="M440.92,38.82h-1.66v-7.12c0-1.48-.24-2.58-.71-3.28-.47-.7-1.17-1.05-2.1-1.05-.49,0-.95.09-1.38.27-.43.18-.83.43-1.2.76-.37.33-.69.71-.97,1.16-.28.45-.49.94-.64,1.48v7.78h-1.66v-7.12c0-1.52-.23-2.62-.68-3.3-.46-.68-1.16-1.03-2.11-1.03s-1.82.33-2.57,1c-.75.67-1.29,1.55-1.61,2.64v7.81h-1.66v-12.75h1.52v2.89c.52-.98,1.21-1.74,2.06-2.29.85-.55,1.79-.82,2.81-.82s1.94.3,2.58.91c.64.6,1.04,1.4,1.19,2.37,1.19-2.19,2.83-3.28,4.92-3.28.72,0,1.33.13,1.82.39s.9.63,1.2,1.11c.3.48.52,1.06.66,1.74.14.68.21,1.43.21,2.26v7.46Z"/><path class="cls-1" d="M25.26,8.19c-1.07-1.21-2.5-2.19-4.28-2.94-1.78-.75-3.82-1.12-6.1-1.12-3.35,0-5.8.63-7.33,1.9-1.53,1.27-2.3,2.99-2.3,5.16,0,1.14.2,2.08.62,2.81.41.73,1.04,1.36,1.9,1.9.86.54,1.95,1,3.29,1.39,1.34.39,2.92.79,4.74,1.18,2.03.43,3.86.91,5.48,1.45,1.62.53,3.01,1.2,4.15,2.01,1.14.8,2.02,1.77,2.62,2.92.61,1.14.91,2.57.91,4.28s-.34,3.26-1.02,4.55c-.68,1.28-1.62,2.35-2.84,3.21-1.21.86-2.66,1.49-4.33,1.9-1.68.41-3.51.62-5.51.62-5.89,0-10.97-1.84-15.25-5.51l1.87-3.05c.68.71,1.49,1.39,2.43,2.03.94.64,2,1.2,3.16,1.69,1.16.48,2.4.86,3.72,1.12,1.32.27,2.71.4,4.17.4,3.03,0,5.4-.54,7.09-1.63,1.69-1.09,2.54-2.74,2.54-4.95,0-1.18-.24-2.17-.72-2.97-.48-.8-1.2-1.5-2.17-2.09-.96-.59-2.16-1.1-3.59-1.53-1.43-.43-3.09-.86-4.98-1.28-2-.46-3.75-.94-5.24-1.44s-2.76-1.12-3.8-1.87c-1.04-.75-1.81-1.65-2.33-2.7-.52-1.05-.78-2.35-.78-3.88,0-1.75.33-3.31.99-4.68.66-1.37,1.6-2.51,2.81-3.42,1.21-.91,2.64-1.61,4.28-2.09,1.64-.48,3.46-.72,5.46-.72,2.53,0,4.79.38,6.77,1.15,1.98.77,3.77,1.85,5.38,3.24l-1.82,3Z"/><path class="cls-1" d="M47.84,37.72c-.21.11-.53.25-.94.43-.41.18-.88.36-1.42.53-.53.18-1.14.34-1.82.48-.68.14-1.39.21-2.14.21s-1.53-.11-2.25-.32c-.71-.21-1.34-.54-1.87-.99-.54-.45-.96-1.01-1.28-1.69s-.48-1.46-.48-2.35V14.07h-3.85v-2.89h3.85V1.77h3.64v9.42h6.42v2.89h-6.42v18.94c.07,1.04.44,1.79,1.1,2.27.66.48,1.42.72,2.27.72,1.03,0,1.94-.17,2.73-.51.78-.34,1.28-.58,1.5-.72l.96,2.94Z"/><path class="cls-1" d="M63.73,39.6c-2.03,0-3.9-.38-5.59-1.15-1.69-.77-3.17-1.82-4.41-3.16-1.25-1.34-2.22-2.88-2.92-4.63-.7-1.75-1.04-3.62-1.04-5.62s.35-3.81,1.04-5.54c.7-1.73,1.66-3.25,2.89-4.55,1.23-1.3,2.7-2.34,4.41-3.1,1.71-.77,3.57-1.15,5.57-1.15s3.9.38,5.59,1.15c1.69.77,3.15,1.81,4.36,3.13,1.21,1.32,2.16,2.84,2.84,4.55.68,1.71,1.02,3.53,1.02,5.46v.86c0,.29-.02.48-.05.59h-23.87c.11,1.5.45,2.88,1.04,4.15.59,1.27,1.35,2.36,2.27,3.29.93.93,1.99,1.65,3.18,2.17,1.2.52,2.47.78,3.83.78.89,0,1.78-.12,2.68-.37.89-.25,1.71-.59,2.46-1.02s1.43-.95,2.03-1.58c.61-.62,1.07-1.31,1.39-2.06l3.16.86c-.43,1.04-1.04,1.97-1.82,2.81-.79.84-1.69,1.57-2.73,2.19-1.03.62-2.18,1.11-3.42,1.44-1.25.34-2.55.51-3.91.51ZM74,23.65c-.11-1.5-.45-2.86-1.04-4.09-.59-1.23-1.34-2.29-2.25-3.18-.91-.89-1.96-1.59-3.16-2.09-1.2-.5-2.47-.75-3.83-.75s-2.64.25-3.85.75c-1.21.5-2.27,1.2-3.18,2.09-.91.89-1.64,1.96-2.19,3.21-.55,1.25-.88,2.6-.99,4.07h20.49Z"/><path class="cls-1" d="M90.7,39.06l-11.34-27.88h3.75l9.58,24.51,9.63-24.51h3.53l-11.34,27.88h-3.8Z"/><path class="cls-1" d="M121.95,39.6c-2.03,0-3.9-.38-5.59-1.15-1.69-.77-3.17-1.82-4.41-3.16-1.25-1.34-2.22-2.88-2.92-4.63-.7-1.75-1.04-3.62-1.04-5.62s.35-3.81,1.04-5.54c.7-1.73,1.66-3.25,2.89-4.55,1.23-1.3,2.7-2.34,4.41-3.1,1.71-.77,3.57-1.15,5.57-1.15s3.9.38,5.59,1.15c1.69.77,3.15,1.81,4.36,3.13,1.21,1.32,2.16,2.84,2.84,4.55.68,1.71,1.02,3.53,1.02,5.46v.86c0,.29-.02.48-.05.59h-23.87c.11,1.5.45,2.88,1.04,4.15.59,1.27,1.35,2.36,2.27,3.29.93.93,1.99,1.65,3.18,2.17,1.2.52,2.47.78,3.83.78.89,0,1.78-.12,2.68-.37.89-.25,1.71-.59,2.46-1.02s1.43-.95,2.03-1.58c.61-.62,1.07-1.31,1.39-2.06l3.16.86c-.43,1.04-1.04,1.97-1.82,2.81-.79.84-1.69,1.57-2.73,2.19-1.03.62-2.18,1.11-3.42,1.44-1.25.34-2.55.51-3.91.51ZM132.22,23.65c-.11-1.5-.45-2.86-1.04-4.09-.59-1.23-1.34-2.29-2.25-3.18-.91-.89-1.96-1.59-3.16-2.09-1.2-.5-2.47-.75-3.83-.75s-2.64.25-3.85.75c-1.21.5-2.27,1.2-3.18,2.09-.91.89-1.64,1.96-2.19,3.21-.55,1.25-.88,2.6-.99,4.07h20.49Z"/><path class="cls-1" d="M164.76,39.06h-3.64v-15.57c0-3.32-.49-5.73-1.47-7.22-.98-1.5-2.49-2.25-4.52-2.25-1.07,0-2.14.2-3.21.59-1.07.39-2.06.95-2.97,1.66-.91.71-1.72,1.56-2.43,2.54-.71.98-1.23,2.04-1.55,3.18v17.07h-3.64V11.18h3.32v6.31c1.14-2.03,2.77-3.67,4.9-4.92,2.12-1.25,4.43-1.87,6.93-1.87,1.53,0,2.84.29,3.91.86,1.07.57,1.93,1.37,2.57,2.41.64,1.03,1.11,2.3,1.39,3.8.29,1.5.43,3.16.43,4.98v16.32Z"/><path class="cls-1" d="M173.27,39.06V1.07h3.75v34.68h21.94v3.32h-25.68Z"/><path class="cls-1" d="M203.71,5.35V0h3.64v5.35h-3.64ZM203.71,39.06V11.18h3.64v27.88h-3.64Z"/><path class="cls-1" d="M238.81,39.06h-3.64v-15.57c0-3.32-.49-5.73-1.47-7.22-.98-1.5-2.49-2.25-4.52-2.25-1.07,0-2.14.2-3.21.59-1.07.39-2.06.95-2.97,1.66-.91.71-1.72,1.56-2.44,2.54-.71.98-1.23,2.04-1.55,3.18v17.07h-3.64V11.18h3.32v6.31c1.14-2.03,2.77-3.67,4.9-4.92,2.12-1.25,4.43-1.87,6.93-1.87,1.53,0,2.84.29,3.91.86,1.07.57,1.93,1.37,2.57,2.41.64,1.03,1.11,2.3,1.39,3.8.29,1.5.43,3.16.43,4.98v16.32Z"/><path class="cls-1" d="M258.02,39.6c-1.93,0-3.71-.4-5.35-1.2-1.64-.8-3.05-1.86-4.23-3.18-1.18-1.32-2.1-2.84-2.76-4.57-.66-1.73-.99-3.54-.99-5.43s.32-3.83.96-5.59,1.52-3.31,2.65-4.63c1.12-1.32,2.46-2.36,4.01-3.13,1.55-.77,3.25-1.15,5.11-1.15,2.35,0,4.44.61,6.26,1.85,1.82,1.23,3.25,2.72,4.28,4.47V0h3.64v34.35c0,1,.43,1.5,1.28,1.5v3.21c-.53.11-.96.16-1.28.16-.86,0-1.61-.28-2.25-.83-.64-.55-.96-1.22-.96-2.01v-2.73c-1.11,1.82-2.6,3.26-4.5,4.33-1.89,1.07-3.85,1.61-5.89,1.61ZM258.83,36.39c.89,0,1.85-.18,2.86-.54,1.02-.36,1.97-.85,2.86-1.47s1.65-1.36,2.27-2.19c.62-.84,1.01-1.74,1.15-2.7v-8.62c-.36-.96-.87-1.86-1.55-2.7-.68-.84-1.45-1.58-2.33-2.22s-1.81-1.14-2.81-1.5c-1-.36-1.98-.53-2.94-.53-1.5,0-2.86.32-4.07.96-1.21.64-2.26,1.49-3.13,2.54-.87,1.05-1.54,2.26-2.01,3.61-.46,1.36-.7,2.75-.7,4.17,0,1.5.27,2.92.8,4.28s1.27,2.54,2.19,3.56c.93,1.02,2.02,1.83,3.29,2.43,1.27.61,2.63.91,4.09.91Z"/><path class="cls-1" d="M291.04,39.44c-1.93,0-3.68-.4-5.27-1.2-1.59-.8-2.96-1.86-4.12-3.18-1.16-1.32-2.06-2.84-2.7-4.55-.64-1.71-.96-3.48-.96-5.3,0-1.93.31-3.77.94-5.54.62-1.77,1.51-3.31,2.65-4.63,1.14-1.32,2.51-2.37,4.09-3.16,1.59-.78,3.34-1.18,5.27-1.18,2.39,0,4.46.6,6.21,1.79,1.75,1.2,3.25,2.7,4.5,4.52v-5.83h3.26v27.99c0,1.93-.37,3.63-1.1,5.11-.73,1.48-1.71,2.72-2.94,3.72s-2.68,1.75-4.33,2.25c-1.66.5-3.42.75-5.27.75-3.21,0-5.8-.57-7.76-1.71-1.96-1.14-3.55-2.68-4.76-4.6l2.25-1.77c1.11,1.78,2.57,3.09,4.39,3.93,1.82.84,3.78,1.26,5.89,1.26,1.35,0,2.64-.19,3.85-.56,1.21-.37,2.27-.93,3.18-1.66.91-.73,1.63-1.66,2.17-2.78s.8-2.43.8-3.93v-5.51c-1.07,1.78-2.53,3.19-4.39,4.23s-3.8,1.55-5.83,1.55ZM292.06,36.39c1.07,0,2.12-.2,3.16-.59,1.03-.39,1.97-.92,2.81-1.58.84-.66,1.54-1.4,2.11-2.22.57-.82.94-1.66,1.12-2.51v-8.62c-.39-1-.93-1.93-1.6-2.78-.68-.86-1.45-1.59-2.3-2.19-.86-.61-1.77-1.09-2.76-1.44-.98-.36-1.97-.53-2.97-.53-1.57,0-2.97.33-4.2.99-1.23.66-2.27,1.53-3.13,2.6s-1.51,2.28-1.95,3.64c-.45,1.36-.67,2.73-.67,4.12,0,1.5.27,2.93.8,4.28.53,1.36,1.28,2.54,2.22,3.56.94,1.02,2.04,1.82,3.29,2.41,1.25.59,2.6.88,4.07.88Z"/><path class="cls-1" d="M326.84,14.39c-2.46.07-4.6.75-6.42,2.03-1.82,1.28-3.1,3.05-3.85,5.3v17.34h-3.64V11.18h3.42v6.69c1.03-2.14,2.43-3.82,4.17-5.03,1.75-1.21,3.62-1.82,5.62-1.82.29,0,.52.02.7.05v3.32Z"/><path class="cls-1" d="M342.36,39.6c-2.03,0-3.9-.38-5.59-1.15-1.69-.77-3.17-1.82-4.41-3.16s-2.22-2.88-2.92-4.63c-.7-1.75-1.04-3.62-1.04-5.62s.35-3.81,1.04-5.54c.7-1.73,1.66-3.25,2.89-4.55,1.23-1.3,2.7-2.34,4.41-3.1,1.71-.77,3.57-1.15,5.56-1.15s3.9.38,5.59,1.15c1.69.77,3.15,1.81,4.36,3.13,1.21,1.32,2.16,2.84,2.84,4.55.68,1.71,1.02,3.53,1.02,5.46v.86c0,.29-.02.48-.05.59h-23.87c.11,1.5.45,2.88,1.04,4.15.59,1.27,1.35,2.36,2.27,3.29.93.93,1.99,1.65,3.18,2.17,1.19.52,2.47.78,3.83.78.89,0,1.78-.12,2.68-.37.89-.25,1.71-.59,2.46-1.02s1.43-.95,2.03-1.58c.61-.62,1.07-1.31,1.39-2.06l3.16.86c-.43,1.04-1.03,1.97-1.82,2.81-.79.84-1.69,1.57-2.73,2.19-1.04.62-2.18,1.11-3.42,1.44-1.25.34-2.55.51-3.91.51ZM352.63,23.65c-.11-1.5-.46-2.86-1.04-4.09-.59-1.23-1.34-2.29-2.25-3.18-.91-.89-1.96-1.59-3.16-2.09-1.2-.5-2.47-.75-3.83-.75s-2.64.25-3.85.75c-1.21.5-2.27,1.2-3.18,2.09-.91.89-1.64,1.96-2.19,3.21-.55,1.25-.88,2.6-.99,4.07h20.5Z"/><path class="cls-1" d="M385.16,39.06h-3.64v-15.57c0-3.32-.49-5.73-1.47-7.22-.98-1.5-2.49-2.25-4.52-2.25-1.07,0-2.14.2-3.21.59-1.07.39-2.06.95-2.97,1.66-.91.71-1.72,1.56-2.44,2.54-.71.98-1.23,2.04-1.55,3.18v17.07h-3.64V11.18h3.32v6.31c1.14-2.03,2.77-3.67,4.9-4.92,2.12-1.25,4.43-1.87,6.93-1.87,1.53,0,2.84.29,3.91.86,1.07.57,1.93,1.37,2.57,2.41.64,1.03,1.11,2.3,1.39,3.8.29,1.5.43,3.16.43,4.98v16.32Z"/></svg>