<?xml version="1.0" encoding="UTF-8"?>
<svg id="Layer_1" xmlns="http://www.w3.org/2000/svg" xmlns:xlink="http://www.w3.org/1999/xlink" version="1.1" viewBox="0 0 48 48">
  <!-- Generator: Adobe Illustrator 29.0.0, SVG Export Plug-In . SVG Version: 2.1.0 Build 186)  -->
  <defs>
    <style>
      .st0 {
        fill: #006cff;
      }
    </style>
    <linearGradient id="linear-gradient" x1="4" y1="24" x2="44" y2="24" gradientUnits="userSpaceOnUse">
      <stop offset="0" stop-color="#fe757d"/>
      <stop offset="1" stop-color="#417cf6"/>
    </linearGradient>
  </defs>
  <path class="st0" d="M7,40c-.8,0-1.5-.3-2.1-.9s-.9-1.3-.9-2.1V11c0-.8.3-1.5.9-2.1s1.3-.9,2.1-.9h34c.8,0,1.5.3,2.1.9s.9,1.3.9,2.1v26c0,.8-.3,1.5-.9,2.1s-1.3.9-2.1.9H7ZM24,24.9L7,13.7v23.3h34V13.7l-17,11.2ZM24,21.9l16.8-10.9H7.3l16.8,10.9ZM7,13.7v-2.8,26V13.7Z"/>
</svg>
