<?xml version="1.0" encoding="UTF-8"?>
<svg id="Layer_1" xmlns="http://www.w3.org/2000/svg" xmlns:xlink="http://www.w3.org/1999/xlink" version="1.1" viewBox="0 0 48 48">
  <!-- Generator: Adobe Illustrator 29.0.0, SVG Export Plug-In . SVG Version: 2.1.0 Build 186)  -->
  <defs>
    <style>
      .st0 {
        fill: url(#linear-gradient);
      }
    </style>
    <linearGradient id="linear-gradient" x1="6" y1="24" x2="42" y2="24" gradientUnits="userSpaceOnUse">
      <stop offset="0" stop-color="#fe757d"/>
      <stop offset="1" stop-color="#417cf6"/>
    </linearGradient>
  </defs>
  <path class="st0" d="M38.8,23.6c-.2-4-1.7-7.5-4.5-10.3s-6.2-4.3-10.3-4.5v-3c2.4,0,4.7.6,6.8,1.5s4,2.2,5.6,3.8,2.9,3.5,3.8,5.6,1.5,4.4,1.5,6.8h-3ZM30.4,23.6c-.2-1.7-.8-3.1-2-4.2s-2.6-1.8-4.3-2v-3c2.5.2,4.6,1.1,6.4,2.9s2.7,3.9,2.9,6.4h-3ZM39.8,42c-3.9,0-7.8-.9-11.8-2.8-4-1.9-7.7-4.5-11.2-8s-6.1-7.2-8-11.2c-1.9-4-2.8-8-2.8-11.8s.2-1.2.6-1.6c.4-.4,1-.6,1.6-.6h7c.5,0,.9.2,1.2.5s.6.8.7,1.3l1.3,6.3c0,.5,0,.9,0,1.3s-.3.7-.5,1l-5,5c.9,1.5,1.8,2.8,2.8,4.1s2,2.5,3.2,3.6c1.2,1.3,2.5,2.4,3.9,3.5s2.8,2,4.3,2.8l4.8-4.9c.3-.4.7-.6,1.2-.8s.9-.2,1.3-.1l6,1.3c.5.1.9.4,1.3.8.3.4.5.9.5,1.3v6.8c0,.6-.2,1.2-.6,1.6-.4.4-1,.6-1.6.6ZM11.5,18.6l4.1-4.1-1.2-5.5h-5.4c0,1.4.3,2.9.7,4.4s1,3.3,1.8,5.2ZM29.9,36.7c1.4.6,2.9,1.2,4.5,1.6s3.2.6,4.7.7v-5.4l-5.2-1.1-4,4.2Z"/>
</svg>