<svg width="30" height="30" viewBox="0 0 30 30" fill="none" xmlns="http://www.w3.org/2000/svg">
<mask id="mask0_15_1214" style="mask-type:luminance" maskUnits="userSpaceOnUse" x="1" y="3" width="28" height="24">
<path d="M17.2084 24.5833H4.30212C3.81313 24.5833 3.34417 24.3891 2.9984 24.0433C2.65263 23.6975 2.45837 23.2286 2.45837 22.7396V6.76041C2.45837 6.27141 2.65263 5.80245 2.9984 5.45668C3.34417 5.11091 3.81313 4.91666 4.30212 4.91666H25.198C25.6869 4.91666 26.1559 5.11091 26.5017 5.45668C26.8475 5.80245 27.0417 6.27141 27.0417 6.76041V14.1717M23.9688 25.1979V17.8229M23.9688 17.8229L20.8959 20.8958M23.9688 17.8229L27.0417 20.8958" stroke="white" stroke-width="2.45833" stroke-linecap="round" stroke-linejoin="round"/>
<path d="M2.45837 6.76041C2.45837 6.27141 2.65263 5.80245 2.9984 5.45668C3.34417 5.11091 3.81313 4.91666 4.30212 4.91666H25.198C25.6869 4.91666 26.1559 5.11091 26.5017 5.45668C26.8475 5.80245 27.0417 6.27141 27.0417 6.76041V12.2917H2.45837V6.76041Z" fill="white" stroke="white" stroke-width="2.45833"/>
<path d="M4.91667 8.60415C4.91667 7.9253 5.46698 7.37498 6.14583 7.37498C6.82468 7.37498 7.375 7.9253 7.375 8.60415C7.375 9.283 6.82468 9.83331 6.14583 9.83331C5.46698 9.83331 4.91667 9.283 4.91667 8.60415Z" fill="black"/>
<path d="M8.60417 8.60415C8.60417 7.9253 9.15448 7.37498 9.83333 7.37498C10.5122 7.37498 11.0625 7.9253 11.0625 8.60415C11.0625 9.283 10.5122 9.83331 9.83333 9.83331C9.15448 9.83331 8.60417 9.283 8.60417 8.60415Z" fill="black"/>
</mask>
<g mask="url(#mask0_15_1214)">
<path d="M0 0H29.5V29.5H0V0Z" fill="#0D99FF"/>
</g>
</svg>
