<svg width="32" height="30" viewBox="0 0 32 30" fill="none" xmlns="http://www.w3.org/2000/svg">
<path d="M30 26.5H1C0.723556 26.5 0.488 26.4022 0.293333 26.2067C0.0977778 26.012 0 25.7764 0 25.5C0 25.2236 0.0977778 24.988 0.293333 24.7933C0.488 24.5978 0.723556 24.5 1 24.5H30C30.2764 24.5 30.512 24.5978 30.7067 24.7933C30.9022 24.988 31 25.2236 31 25.5C31 25.7764 30.9022 26.012 30.7067 26.2067C30.5111 26.4013 30.2756 26.4991 30 26.5Z" fill="#0D99FF"/>
<path d="M3.83333 11H9.16667C9.25507 11 9.33986 11.0351 9.40237 11.0976C9.46488 11.1601 9.5 11.2449 9.5 11.3333V24.6667C9.5 24.7551 9.46488 24.8399 9.40237 24.9024C9.33986 24.9649 9.25507 25 9.16667 25H3.83333C3.74493 25 3.66014 24.9649 3.59763 24.9024C3.53512 24.8399 3.5 24.7551 3.5 24.6667V11.3333C3.5 11.2449 3.53512 11.1601 3.59763 11.0976C3.66014 11.0351 3.74493 11 3.83333 11ZM11.8333 3H17.1667C17.2551 3 17.3399 3.03512 17.4024 3.09763C17.4649 3.16014 17.5 3.24493 17.5 3.33333V24.6667C17.5 24.7551 17.4649 24.8399 17.4024 24.9024C17.3399 24.9649 17.2551 25 17.1667 25H11.8333C11.7449 25 11.6601 24.9649 11.5976 24.9024C11.5351 24.8399 11.5 24.7551 11.5 24.6667V3.33333C11.5 3.24493 11.5351 3.16014 11.5976 3.09763C11.6601 3.03512 11.7449 3 11.8333 3ZM19.8333 15H25.1667C25.2551 15 25.3399 15.0351 25.4024 15.0976C25.4649 15.1601 25.5 15.2449 25.5 15.3333V24.6667C25.5 24.7551 25.4649 24.8399 25.4024 24.9024C25.3399 24.9649 25.2551 25 25.1667 25H19.8333C19.7449 25 19.6601 24.9649 19.5976 24.9024C19.5351 24.8399 19.5 24.7551 19.5 24.6667V15.3333C19.5 15.2449 19.5351 15.1601 19.5976 15.0976C19.6601 15.0351 19.7449 15 19.8333 15Z" fill="#0D99FF"/>
</svg>
