<?xml version="1.0" encoding="UTF-8"?>
<svg id="Layer_1" xmlns="http://www.w3.org/2000/svg" version="1.1" viewBox="0 0 32 30">
  <!-- Generator: Adobe Illustrator 30.4.0, SVG Export Plug-In . SVG Version: 2.1.4 Build 226)  -->
  <defs>
    <style>
      .st0 {
        fill: #39bfb3;
      }
    </style>
  </defs>
  <path class="st0" d="M30.5,26.5H1.5c-.3,0-.5,0-.7-.3-.2-.2-.3-.4-.3-.7s0-.5.3-.7c.2-.2.4-.3.7-.3h29c.3,0,.5,0,.7.3.2.2.3.4.3.7s0,.5-.3.7c-.2.2-.4.3-.7.3Z"/>
  <path class="st0" d="M5.4,11h5.5v13.7h-5.7v-13.7h.2ZM13.4,3h5.5v21.7h-5.7V3.1h.2ZM21.3,15h5.5v9.7h-5.7v-9.7h.2Z"/>
</svg>