<svg width="30" height="30" viewBox="0 0 30 30" fill="none" xmlns="http://www.w3.org/2000/svg">
<path d="M12.6519 12.6518C12.827 12.4767 13.051 12.3586 13.2945 12.3129C13.538 12.2673 13.7895 12.2963 14.0162 12.3961L26.3079 17.8045C26.5405 17.908 26.7353 18.0811 26.8653 18.2999C26.9954 18.5188 27.0544 18.7726 27.0342 19.0264C27.014 19.2801 26.9155 19.5214 26.7524 19.7169C26.5893 19.9123 26.3696 20.0524 26.1235 20.1178L21.3666 21.3654L20.1178 26.1247C20.0528 26.3711 19.9127 26.5913 19.7171 26.7546C19.5214 26.9179 19.2798 27.0164 19.0257 27.0364C18.7716 27.0564 18.5176 26.9969 18.2988 26.8661C18.08 26.7354 17.9073 26.5399 17.8045 26.3066L12.3962 14.0149C12.2966 13.7884 12.2678 13.5371 12.3134 13.2939C12.359 13.0507 12.477 12.8269 12.6519 12.6518ZM7.7991 19.9604C7.91249 19.843 8.04812 19.7494 8.19808 19.685C8.34805 19.6205 8.50934 19.5866 8.67255 19.5852C8.83575 19.5838 8.99761 19.6149 9.14867 19.6767C9.29973 19.7385 9.43697 19.8298 9.55238 19.9452C9.66779 20.0606 9.75906 20.1978 9.82086 20.3489C9.88266 20.5 9.91376 20.6618 9.91235 20.825C9.91093 20.9882 9.87702 21.1495 9.8126 21.2995C9.74818 21.4495 9.65454 21.5851 9.53714 21.6985L6.93008 24.3055C6.69826 24.5294 6.38777 24.6533 6.06548 24.6505C5.7432 24.6477 5.43491 24.5185 5.20701 24.2906C4.97911 24.0627 4.84984 23.7544 4.84704 23.4321C4.84424 23.1098 4.96814 22.7993 5.19204 22.5675L7.7991 19.9604ZM6.15202 13.5147C6.47801 13.5147 6.79066 13.6442 7.02117 13.8747C7.25168 14.1052 7.38118 14.4178 7.38118 14.7438C7.38118 15.0698 7.25168 15.3825 7.02117 15.613C6.79066 15.8435 6.47801 15.973 6.15202 15.973H2.46452C2.13852 15.973 1.82588 15.8435 1.59537 15.613C1.36485 15.3825 1.23535 15.0698 1.23535 14.7438C1.23535 14.4178 1.36485 14.1052 1.59537 13.8747C1.82588 13.6442 2.13852 13.5147 2.46452 13.5147H6.15202ZM5.19204 5.19322C5.42254 4.96279 5.73513 4.83334 6.06106 4.83334C6.38699 4.83334 6.69958 4.96279 6.93008 5.19322L9.53714 7.80151C9.75551 8.03438 9.87471 8.34307 9.86953 8.66226C9.86435 8.98145 9.73518 9.28611 9.50937 9.51176C9.28356 9.73741 8.97881 9.86636 8.65961 9.87132C8.34042 9.87628 8.03181 9.75686 7.7991 9.53832L5.19204 6.93249C4.96161 6.70199 4.83216 6.3894 4.83216 6.06347C4.83216 5.73754 4.96161 5.42372 5.19204 5.19322ZM22.5749 5.18707C22.6877 5.06701 22.8234 4.97083 22.974 4.90425C23.1247 4.83767 23.2872 4.80204 23.4518 4.79948C23.6165 4.79692 23.78 4.82749 23.9327 4.88936C24.0853 4.95123 24.224 5.04315 24.3404 5.15965C24.4568 5.27616 24.5486 5.41487 24.6104 5.56755C24.6722 5.72024 24.7026 5.88377 24.6999 6.04846C24.6973 6.21314 24.6615 6.3756 24.5948 6.5262C24.5281 6.67679 24.4319 6.81245 24.3117 6.92511L21.7059 9.53095C21.4742 9.75502 21.1638 9.87914 20.8415 9.87657C20.5192 9.874 20.2109 9.74494 19.9828 9.51721C19.7547 9.28947 19.6253 8.98127 19.6222 8.65898C19.6192 8.3367 19.7429 8.02612 19.9666 7.79414L22.5749 5.18707ZM13.5209 6.14582V2.45832C13.5209 2.13233 13.6504 1.81968 13.8809 1.58917C14.1114 1.35866 14.424 1.22916 14.75 1.22916C15.076 1.22916 15.3887 1.35866 15.6192 1.58917C15.8497 1.81968 15.9792 2.13233 15.9792 2.45832V6.14582C15.9792 6.47182 15.8497 6.78446 15.6192 7.01497C15.3887 7.24549 15.076 7.37499 14.75 7.37499C14.424 7.37499 14.1114 7.24549 13.8809 7.01497C13.6504 6.78446 13.5209 6.47182 13.5209 6.14582Z" fill="#0D99FF"/>
</svg>
